<svg width="761" height="121" viewBox="0 0 761 121" fill="none" xmlns="http://www.w3.org/2000/svg">
<path d="M3.20114 69V13.8H23.2309C35.3749 13.8 43.7337 20.0297 43.7337 30.6754V30.8331C43.7337 42.504 33.7977 48.4183 22.2057 48.4183H7.30171V69H3.20114ZM7.30171 44.6331H22.4423C32.6937 44.6331 39.6331 39.3497 39.6331 31.0697V30.912C39.6331 22.1589 32.7726 17.5851 22.9154 17.5851H7.30171V44.6331Z" fill="#181E52"/>
<path d="M69.2114 69.9463C58.6445 69.9463 49.4971 61.5874 49.4971 48.9703V48.8126C49.4971 37.2206 57.6982 27.8366 68.5805 27.8366C79.8571 27.8366 87.0331 36.984 87.0331 48.8914C87.0331 49.6011 87.0331 49.8377 86.9542 50.4686H53.5976C54.2285 60.4834 61.5622 66.3189 69.3691 66.3189C75.6776 66.3189 79.7782 63.5589 83.1691 60.0103L85.8502 62.376C81.7496 66.792 76.8605 69.9463 69.2114 69.9463ZM53.5976 46.9989H82.8536C82.2228 38.8766 77.6491 31.3851 68.4228 31.3851C60.4582 31.3851 54.2285 38.088 53.5976 46.9989Z" fill="#181E52"/>
<path d="M113.764 69.9463C101.857 69.9463 93.1827 60.3257 93.1827 49.0491V48.8914C93.1827 37.6149 101.936 27.8366 113.922 27.8366C125.83 27.8366 134.504 37.4571 134.504 48.7337V48.8914C134.504 60.168 125.751 69.9463 113.764 69.9463ZM113.922 66.3189C123.464 66.3189 130.324 58.512 130.324 49.0491V48.8914C130.324 39.1131 123.07 31.464 113.764 31.464C104.223 31.464 97.3621 39.2709 97.3621 48.7337V48.8914C97.3621 58.6697 104.617 66.3189 113.922 66.3189Z" fill="#181E52"/>
<path d="M144.018 81.6171V28.7829H147.882V37.7726C151.273 32.4891 156.477 27.8366 164.442 27.8366C174.141 27.8366 183.998 35.6434 183.998 48.7337V48.8914C183.998 61.9029 174.141 69.9463 164.442 69.9463C156.398 69.9463 151.273 65.3726 147.882 60.3257V81.6171H144.018ZM164.048 66.24C172.88 66.24 179.819 59.7737 179.819 49.0491V48.8914C179.819 38.3246 172.564 31.5429 164.048 31.5429C155.61 31.5429 147.645 38.5611 147.645 48.8126V48.9703C147.645 59.3006 155.61 66.24 164.048 66.24Z" fill="#181E52"/>
<path d="M194.262 69V11.4343H198.126V69H194.262Z" fill="#181E52"/>
<path d="M227.936 69.9463C217.369 69.9463 208.222 61.5874 208.222 48.9703V48.8126C208.222 37.2206 216.423 27.8366 227.305 27.8366C238.582 27.8366 245.758 36.984 245.758 48.8914C245.758 49.6011 245.758 49.8377 245.679 50.4686H212.322C212.953 60.4834 220.287 66.3189 228.094 66.3189C234.402 66.3189 238.503 63.5589 241.894 60.0103L244.575 62.376C240.474 66.792 235.585 69.9463 227.936 69.9463ZM212.322 46.9989H241.578C240.947 38.8766 236.374 31.3851 227.147 31.3851C219.183 31.3851 212.953 38.088 212.322 46.9989Z" fill="#181E52"/>
<path d="M301.809 69.9463C285.958 69.9463 274.366 57.408 274.366 41.5577V41.4C274.366 25.7863 286.037 12.8537 301.966 12.8537C311.745 12.8537 317.738 16.4023 323.415 21.6857L320.498 24.6823C315.687 20.0297 310.167 16.56 301.887 16.56C288.639 16.56 278.625 27.3634 278.625 41.2423V41.4C278.625 55.2789 288.797 66.24 301.966 66.24C309.931 66.24 315.372 63.2434 320.971 57.6446L323.731 60.3257C317.817 66.0034 311.587 69.9463 301.809 69.9463Z" fill="#181E52"/>
<path d="M349.233 69.9463C337.326 69.9463 328.651 60.3257 328.651 49.0491V48.8914C328.651 37.6149 337.404 27.8366 349.391 27.8366C361.298 27.8366 369.973 37.4571 369.973 48.7337V48.8914C369.973 60.168 361.219 69.9463 349.233 69.9463ZM349.391 66.3189C358.932 66.3189 365.793 58.512 365.793 49.0491V48.8914C365.793 39.1131 358.538 31.464 349.233 31.464C339.691 31.464 332.831 39.2709 332.831 48.7337V48.8914C332.831 58.6697 340.086 66.3189 349.391 66.3189Z" fill="#181E52"/>
<path d="M379.487 69V28.7829H383.351V36.2743C386.111 31.5429 390.527 27.8366 397.86 27.8366C408.033 27.8366 413.947 34.6971 413.947 44.3966V69H410.083V45.1063C410.083 36.8263 405.509 31.3851 397.308 31.3851C389.423 31.3851 383.351 37.2994 383.351 45.7371V69H379.487Z" fill="#181E52"/>
<path d="M425.482 69V28.7829H429.346V36.2743C432.106 31.5429 436.522 27.8366 443.856 27.8366C454.029 27.8366 459.943 34.6971 459.943 44.3966V69H456.079V45.1063C456.079 36.8263 451.505 31.3851 443.304 31.3851C435.418 31.3851 429.346 37.2994 429.346 45.7371V69H425.482Z" fill="#181E52"/>
<path d="M488.433 69.9463C477.866 69.9463 468.718 61.5874 468.718 48.9703V48.8126C468.718 37.2206 476.919 27.8366 487.802 27.8366C499.078 27.8366 506.254 36.984 506.254 48.8914C506.254 49.6011 506.254 49.8377 506.175 50.4686H472.819C473.45 60.4834 480.783 66.3189 488.59 66.3189C494.899 66.3189 498.999 63.5589 502.39 60.0103L505.071 62.376C500.971 66.792 496.082 69.9463 488.433 69.9463ZM472.819 46.9989H502.075C501.444 38.8766 496.87 31.3851 487.644 31.3851C479.679 31.3851 473.45 38.088 472.819 46.9989Z" fill="#181E52"/>
<path d="M532.907 69.9463C521.315 69.9463 512.404 60.3257 512.404 49.0491V48.8914C512.404 37.6149 521.315 27.8366 532.907 27.8366C540.477 27.8366 545.208 31.2274 548.994 35.2491L546.234 38.088C542.764 34.5394 538.821 31.464 532.828 31.464C523.68 31.464 516.583 39.0343 516.583 48.7337V48.8914C516.583 58.6697 523.996 66.3189 533.143 66.3189C538.821 66.3189 543.237 63.4011 546.628 59.616L549.309 61.9817C545.208 66.6343 540.24 69.9463 532.907 69.9463Z" fill="#181E52"/>
<path d="M571.254 69.7097C564.946 69.7097 559.978 66.3189 559.978 58.6697V32.3314H554.142V28.7829H559.978V15.9291H563.842V28.7829H577.957V32.3314H563.842V58.2754C563.842 64.032 567.154 66.0823 571.885 66.0823C573.856 66.0823 575.512 65.688 577.799 64.6629V68.2903C575.67 69.2366 573.778 69.7097 571.254 69.7097Z" fill="#181E52"/>
<path d="M2.81711 113.786V93.8667H10.2725C14.7685 93.8667 17.7279 96.257 17.7279 100.184V100.241C17.7279 104.538 14.1425 106.757 9.90257 106.757H5.06511V113.786H2.81711ZM5.06511 104.708H9.98794C13.2888 104.708 15.4514 102.944 15.4514 100.326V100.269C15.4514 97.4237 13.3173 95.944 10.1018 95.944H5.06511V104.708Z" fill="#7C7F9C"/>
<path d="M27.1776 114.127C22.767 114.127 19.5515 110.656 19.5515 106.501V106.444C19.5515 102.261 22.767 98.7611 27.2345 98.7611C31.6736 98.7611 34.8891 102.233 34.8891 106.387V106.444C34.8891 110.627 31.6167 114.127 27.1776 114.127ZM27.2345 112.164C30.4216 112.164 32.6411 109.574 32.6411 106.501V106.444C32.6411 103.286 30.2793 100.696 27.1776 100.696C23.9906 100.696 21.7995 103.286 21.7995 106.387V106.444C21.7995 109.603 24.1329 112.164 27.2345 112.164Z" fill="#7C7F9C"/>
<path d="M41.1805 113.9L36.03 99.0741H38.3634L42.2333 110.883L46.1887 99.0172H48.0099L51.9936 110.883L55.8636 99.0741H58.1401L52.9611 113.9H51.0546L47.0993 102.29L43.1155 113.9H41.1805Z" fill="#7C7F9C"/>
<path d="M66.6465 114.127C62.6343 114.127 59.305 111.026 59.305 106.473V106.416C59.305 102.176 62.2644 98.7611 66.362 98.7611C70.7157 98.7611 73.2198 102.233 73.2198 106.53C73.2198 106.843 73.2198 106.985 73.1914 107.241H61.5245C61.8375 110.428 64.0855 112.221 66.7035 112.221C68.7523 112.221 70.1181 111.395 71.3417 110.143L72.7076 111.367C71.2279 113.046 69.4637 114.127 66.6465 114.127ZM61.5245 105.619H71.0003C70.7726 102.973 69.2645 100.611 66.3051 100.611C63.7156 100.611 61.8375 102.773 61.5245 105.619Z" fill="#7C7F9C"/>
<path d="M76.2019 113.786V99.0741H78.393V102.916C79.4743 100.468 81.6085 98.7326 84.3971 98.818V101.18H84.2264C81.0109 101.18 78.393 103.485 78.393 107.924V113.786H76.2019Z" fill="#7C7F9C"/>
<path d="M92.6724 114.127C88.6601 114.127 85.3308 111.026 85.3308 106.473V106.416C85.3308 102.176 88.2902 98.7611 92.3878 98.7611C96.7415 98.7611 99.2456 102.233 99.2456 106.53C99.2456 106.843 99.2456 106.985 99.2172 107.241H87.5504C87.8634 110.428 90.1114 112.221 92.7293 112.221C94.7781 112.221 96.144 111.395 97.3676 110.143L98.7334 111.367C97.2537 113.046 95.4895 114.127 92.6724 114.127ZM87.5504 105.619H97.0261C96.7985 102.973 95.2903 100.611 92.3309 100.611C89.7414 100.611 87.8634 102.773 87.5504 105.619Z" fill="#7C7F9C"/>
<path d="M108.403 114.099C104.874 114.099 101.374 111.31 101.374 106.473V106.416C101.374 101.635 104.874 98.7611 108.403 98.7611C111.134 98.7611 112.899 100.212 114.037 101.891V93.0131H116.228V113.786H114.037V110.826C112.813 112.591 111.134 114.099 108.403 114.099ZM108.801 112.135C111.533 112.135 114.122 109.83 114.122 106.444V106.387C114.122 103.001 111.533 100.725 108.801 100.725C105.955 100.725 103.622 102.83 103.622 106.387V106.444C103.622 109.944 105.984 112.135 108.801 112.135Z" fill="#7C7F9C"/>
<path d="M135.773 114.099C133.041 114.099 131.277 112.647 130.139 110.969V113.786H127.948V93.0131H130.139V102.034C131.363 100.298 133.041 98.7611 135.773 98.7611C139.302 98.7611 142.802 101.55 142.802 106.387V106.444C142.802 111.225 139.33 114.099 135.773 114.099ZM135.375 112.135C138.22 112.135 140.554 110.03 140.554 106.473V106.416C140.554 102.916 138.192 100.725 135.375 100.725C132.643 100.725 130.054 103.058 130.054 106.387V106.444C130.054 109.859 132.643 112.135 135.375 112.135Z" fill="#7C7F9C"/>
<path d="M151.557 111.339L156.28 99.0741H158.614L152.439 114.269C151.187 117.314 149.736 118.424 147.545 118.424C146.321 118.424 145.41 118.168 144.414 117.684L145.154 115.948C145.866 116.318 146.52 116.489 147.459 116.489C148.797 116.489 149.593 115.806 150.475 113.729L143.788 99.0741H146.207L151.557 111.339Z" fill="#7C7F9C"/>
<path d="M169.274 113.786V93.8667H176.729C181.225 93.8667 184.185 96.257 184.185 100.184V100.241C184.185 104.538 180.599 106.757 176.359 106.757H171.522V113.786H169.274ZM171.522 104.708H176.445C179.746 104.708 181.908 102.944 181.908 100.326V100.269C181.908 97.4237 179.774 95.944 176.559 95.944H171.522V104.708Z" fill="#7C7F9C"/>
<path d="M193.35 114.127C189.338 114.127 186.008 111.026 186.008 106.473V106.416C186.008 102.176 188.968 98.7611 193.065 98.7611C197.419 98.7611 199.923 102.233 199.923 106.53C199.923 106.843 199.923 106.985 199.895 107.241H188.228C188.541 110.428 190.789 112.221 193.407 112.221C195.456 112.221 196.822 111.395 198.045 110.143L199.411 111.367C197.931 113.046 196.167 114.127 193.35 114.127ZM188.228 105.619H197.704C197.476 102.973 195.968 100.611 193.008 100.611C190.419 100.611 188.541 102.773 188.228 105.619Z" fill="#7C7F9C"/>
<path d="M209.621 114.127C205.21 114.127 201.995 110.656 201.995 106.501V106.444C201.995 102.261 205.21 98.7611 209.678 98.7611C214.117 98.7611 217.332 102.233 217.332 106.387V106.444C217.332 110.627 214.06 114.127 209.621 114.127ZM209.678 112.164C212.865 112.164 215.084 109.574 215.084 106.501V106.444C215.084 103.286 212.722 100.696 209.621 100.696C206.434 100.696 204.243 103.286 204.243 106.387V106.444C204.243 109.603 206.576 112.164 209.678 112.164Z" fill="#7C7F9C"/>
<path d="M220.448 118.339V99.0741H222.639V102.034C223.862 100.298 225.541 98.7611 228.273 98.7611C231.802 98.7611 235.302 101.55 235.302 106.387V106.444C235.302 111.225 231.83 114.099 228.273 114.099C225.541 114.099 223.777 112.647 222.639 110.969V118.339H220.448ZM227.875 112.135C230.72 112.135 233.054 110.03 233.054 106.473V106.416C233.054 102.916 230.692 100.725 227.875 100.725C225.143 100.725 222.553 103.058 222.553 106.387V106.444C222.553 109.859 225.143 112.135 227.875 112.135Z" fill="#7C7F9C"/>
<path d="M238.69 113.786V93.0131H240.881V113.786H238.69Z" fill="#7C7F9C"/>
<path d="M251.543 114.127C247.531 114.127 244.201 111.026 244.201 106.473V106.416C244.201 102.176 247.161 98.7611 251.258 98.7611C255.612 98.7611 258.116 102.233 258.116 106.53C258.116 106.843 258.116 106.985 258.088 107.241H246.421C246.734 110.428 248.982 112.221 251.6 112.221C253.649 112.221 255.015 111.395 256.238 110.143L257.604 111.367C256.124 113.046 254.36 114.127 251.543 114.127ZM246.421 105.619H255.897C255.669 102.973 254.161 100.611 251.201 100.611C248.612 100.611 246.734 102.773 246.421 105.619Z" fill="#7C7F9C"/>
<path d="M278.251 114.127C272.503 114.127 268.264 109.603 268.264 103.883V103.826C268.264 98.192 272.503 93.5253 278.337 93.5253C281.951 93.5253 284.142 94.7773 286.105 96.6838L284.569 98.3343C282.861 96.7407 281.04 95.6025 278.308 95.6025C273.898 95.6025 270.597 99.1879 270.597 103.769V103.826C270.597 108.436 273.898 112.05 278.308 112.05C281.04 112.05 282.833 110.997 284.739 109.176L286.219 110.627C284.17 112.733 281.837 114.127 278.251 114.127Z" fill="#7C7F9C"/>
<path d="M295.479 114.127C291.069 114.127 287.853 110.656 287.853 106.501V106.444C287.853 102.261 291.069 98.7611 295.536 98.7611C299.975 98.7611 303.191 102.233 303.191 106.387V106.444C303.191 110.627 299.918 114.127 295.479 114.127ZM295.536 112.164C298.723 112.164 300.943 109.574 300.943 106.501V106.444C300.943 103.286 298.581 100.696 295.479 100.696C292.292 100.696 290.101 103.286 290.101 106.387V106.444C290.101 109.603 292.434 112.164 295.536 112.164Z" fill="#7C7F9C"/>
<path d="M306.306 113.786V99.0741H308.497V102.916C309.579 100.468 311.713 98.7326 314.501 98.818V101.18H314.331C311.115 101.18 308.497 103.485 308.497 107.924V113.786H306.306Z" fill="#7C7F9C"/>
<path d="M316.985 118.339V99.0741H319.176V102.034C320.399 100.298 322.078 98.7611 324.81 98.7611C328.339 98.7611 331.839 101.55 331.839 106.387V106.444C331.839 111.225 328.367 114.099 324.81 114.099C322.078 114.099 320.314 112.647 319.176 110.969V118.339H316.985ZM324.412 112.135C327.257 112.135 329.591 110.03 329.591 106.473V106.416C329.591 102.916 327.229 100.725 324.412 100.725C321.68 100.725 319.09 103.058 319.09 106.387V106.444C319.09 109.859 321.68 112.135 324.412 112.135Z" fill="#7C7F9C"/>
<path d="M341.743 114.127C337.332 114.127 334.117 110.656 334.117 106.501V106.444C334.117 102.261 337.332 98.7611 341.8 98.7611C346.239 98.7611 349.454 102.233 349.454 106.387V106.444C349.454 110.627 346.182 114.127 341.743 114.127ZM341.8 112.164C344.987 112.164 347.206 109.574 347.206 106.501V106.444C347.206 103.286 344.845 100.696 341.743 100.696C338.556 100.696 336.365 103.286 336.365 106.387V106.444C336.365 109.603 338.698 112.164 341.8 112.164Z" fill="#7C7F9C"/>
<path d="M352.57 113.786V99.0741H354.761V102.916C355.842 100.468 357.977 98.7326 360.765 98.818V101.18H360.594C357.379 101.18 354.761 103.485 354.761 107.924V113.786H352.57Z" fill="#7C7F9C"/>
<path d="M366.908 114.099C364.177 114.099 361.416 112.562 361.416 109.517V109.46C361.416 106.387 363.977 104.708 367.705 104.708C369.612 104.708 370.892 104.964 372.229 105.334V104.822C372.229 102.176 370.608 100.81 367.847 100.81C366.112 100.81 364.746 101.237 363.38 101.891L362.725 100.099C364.347 99.3302 365.912 98.8749 368.075 98.8749C370.152 98.8749 371.746 99.4156 372.827 100.497C373.823 101.493 374.335 102.944 374.335 104.794V113.786H372.229V111.566C371.205 112.904 369.526 114.099 366.908 114.099ZM367.335 112.363C370.067 112.363 372.258 110.712 372.258 108.379V106.956C371.148 106.643 369.754 106.33 367.933 106.33C365.172 106.33 363.636 107.525 363.636 109.375V109.432C363.636 111.282 365.372 112.363 367.335 112.363Z" fill="#7C7F9C"/>
<path d="M382.935 114.042C380.545 114.042 378.781 112.875 378.781 109.887V101.009H376.732V99.0741H378.781V94.635H380.972V99.0741H385.638V101.009H380.972V109.603C380.972 111.424 381.968 112.05 383.447 112.05C384.216 112.05 384.813 111.908 385.581 111.538V113.416C384.813 113.843 383.988 114.042 382.935 114.042Z" fill="#7C7F9C"/>
<path d="M388.72 95.8586V93.4399H391.224V95.8586H388.72ZM388.862 113.786V99.0741H391.053V113.786H388.862Z" fill="#7C7F9C"/>
<path d="M402 114.127C397.589 114.127 394.374 110.656 394.374 106.501V106.444C394.374 102.261 397.589 98.7611 402.057 98.7611C406.496 98.7611 409.712 102.233 409.712 106.387V106.444C409.712 110.627 406.439 114.127 402 114.127ZM402.057 112.164C405.244 112.164 407.464 109.574 407.464 106.501V106.444C407.464 103.286 405.102 100.696 402 100.696C398.813 100.696 396.622 103.286 396.622 106.387V106.444C396.622 109.603 398.955 112.164 402.057 112.164Z" fill="#7C7F9C"/>
<path d="M412.827 113.786V99.0741H415.018V101.635C416.014 100.042 417.522 98.7611 420.055 98.7611C423.583 98.7611 425.689 101.151 425.689 104.651V113.786H423.498V105.192C423.498 102.46 422.047 100.753 419.429 100.753C416.896 100.753 415.018 102.603 415.018 105.363V113.786H412.827Z" fill="#7C7F9C"/>
<path d="M610 10.0784C610 4.85997 614.23 0.629608 619.449 0.629608H749.551C754.77 0.629608 759 4.85997 759 10.0784V75.493C759 80.7114 754.77 84.9418 749.551 84.9418H619.449C614.23 84.9418 610 80.7114 610 75.493V10.0784Z" fill="#73C1C7"/>
<path d="M630.968 62.1711V22.0501H660.715V28.3548H638.018V38.7863H658.136V45.1483H638.018V55.8664H661.002V62.1711H630.968Z" fill="white"/>
<path d="M664.207 62.1711L681.86 21.7635H688.394L706.047 62.1711H698.596L694.527 52.4847H675.555L671.429 62.1711H664.207ZM678.134 46.2373H691.948L685.012 30.1889L678.134 46.2373Z" fill="white"/>
<path d="M711.208 62.1711V22.0501H727.027C736.427 22.0501 742.273 27.3805 742.273 35.462V35.5766C742.273 44.5178 735.109 49.275 726.225 49.275H718.258V62.1711H711.208ZM718.258 42.913H726.454C731.784 42.913 735.108 39.9326 735.108 35.7485V35.6339C735.108 30.8767 731.727 28.4695 726.454 28.4695H718.258V42.913Z" fill="white"/>
</svg>
