<svg width="265" height="505" viewBox="0 0 265 505" fill="none" xmlns="http://www.w3.org/2000/svg">
<g clip-path="url(#clip0_103_208)">
<path opacity="0.1" d="M125.874 505C167.216 505 200.73 498.282 200.73 489.994C200.73 481.706 167.216 474.988 125.874 474.988C84.5329 474.988 51.0189 481.706 51.0189 489.994C51.0189 498.282 84.5329 505 125.874 505Z" fill="black"/>
<path d="M72.8953 314.581C72.8953 309.107 94.7194 304.682 121.666 304.682C148.613 304.682 170.437 309.107 170.437 314.581C170.437 320.054 148.613 324.48 121.666 324.48C94.7194 324.48 72.8953 320.054 72.8953 314.581Z" fill="#939FFF"/>
<path d="M133.01 171.485C110.401 162.24 91.3477 159.779 78.4624 99.8584C70.5691 63.1154 69.4452 19.8776 69.4452 19.8776C69.4452 19.8776 139.413 81.0548 144.876 122.433C150.338 163.812 133.01 171.485 133.01 171.485Z" fill="#C1CAFF"/>
<path d="M104.756 91.1636C104.756 91.1636 126.266 129.007 133.01 171.511C143.36 236.878 131.781 426.407 131.781 426.407" stroke="#939FFF" stroke-width="2.24032" stroke-linecap="round" stroke-linejoin="round"/>
<path d="M112.911 224.805C112.911 224.805 144.745 191.834 111.708 155.431C78.6715 119.055 43.1779 107.479 43.1779 107.479C43.1779 107.479 46.1313 164.335 65.5247 196.862C84.9443 229.388 112.911 224.805 112.911 224.805Z" fill="#939FFF"/>
<path d="M131.781 433.636C131.781 433.636 144.928 337.156 107.317 216.504C98.6137 188.586 68.5565 137.701 68.5565 137.701" stroke="#C1CAFF" stroke-width="2.24032" stroke-linecap="round" stroke-linejoin="round"/>
<path d="M146.183 191.991C146.183 191.991 112.388 148.805 143.569 86.8685C174.75 24.958 209.773 0 209.773 0C209.773 0 209.956 86.5804 192.236 139.822C174.515 193.064 146.183 192.017 146.183 192.017V191.991Z" fill="#939FFF"/>
<path d="M131.781 426.407C131.781 426.407 135.414 260.893 146.182 192.017C153.083 147.915 185.936 50.9897 185.936 50.9897" stroke="#C1CAFF" stroke-width="2.24032" stroke-linecap="round" stroke-linejoin="round"/>
<path d="M265 123.009C265 123.009 228.147 165.775 210.322 178.87C178.148 202.492 155.121 191.702 163.145 165.985C173.861 131.599 265 123.009 265 123.009Z" fill="#C1CAFF"/>
<path d="M224.828 142.703C209.851 152.393 113.616 179.263 128.462 428.005" stroke="#939FFF" stroke-width="2.24032" stroke-linecap="round" stroke-linejoin="round"/>
<path d="M0 203.121C0 203.121 36.8527 245.887 54.678 258.982C86.8523 282.604 109.879 271.814 101.855 246.097C91.1387 211.711 0 203.121 0 203.121Z" fill="#C1CAFF"/>
<path d="M37.5322 224.596C52.5086 234.286 146.209 250.104 131.781 426.407" stroke="#939FFF" stroke-width="2.24032" stroke-linecap="round" stroke-linejoin="round"/>
<path d="M147.829 263.277C165.445 260.029 179.533 260.841 197.123 222.815C207.918 199.481 214.739 171.013 214.739 171.013C214.739 171.013 155.749 202.571 146.078 229.284C136.381 255.996 147.829 263.277 147.829 263.277Z" fill="#939FFF"/>
<path d="M183.689 205.714C183.689 205.714 153.553 246.018 142.21 273.071C118.948 328.618 126.685 418.472 126.685 418.472" stroke="#C1CAFF" stroke-width="2.24032" stroke-linecap="round" stroke-linejoin="round"/>
<path d="M73.1304 488.449C73.1304 488.449 91.5306 496.358 127.469 496.358C152.011 496.358 170.411 488.449 170.411 488.449V314.581C170.411 314.581 166.02 321.6 125.717 321.6C81.0237 321.6 73.1304 314.581 73.1304 314.581V488.449Z" fill="#D1D4FB"/>
</g>
<defs>
<clipPath id="clip0_103_208">
<rect width="265" height="505" fill="white"/>
</clipPath>
</defs>
</svg>
