<svg width="56" height="59" viewBox="0 0 56 59" fill="none" xmlns="http://www.w3.org/2000/svg">
<path d="M6.83106 58.6394C3.93767 53.7528 1.94445 48.6732 0.851388 43.4008C-0.177373 38.0642 -0.273819 32.8239 0.562049 27.6801C1.39792 22.472 3.13395 17.5211 5.77015 12.8274C8.47065 8.06934 12.0392 3.79356 16.4757 0L22.9376 3.9543C24.095 4.66158 24.6093 5.56174 24.4807 6.6548C24.3521 7.74786 23.9664 8.64803 23.3234 9.35529C21.8445 11.1556 20.4943 13.4382 19.2726 16.203C18.051 18.9678 17.2151 22.0219 16.765 25.3654C16.3792 28.7089 16.5078 32.2131 17.1508 35.878C17.7938 39.543 19.1762 43.1437 21.298 46.68C22.3268 48.2875 22.6161 49.7342 22.166 51.0201C21.7802 52.2418 20.8479 53.1098 19.3691 53.6242L6.83106 58.6394ZM37.5974 58.6394C34.704 53.7528 32.7108 48.6732 31.6178 43.4008C30.589 38.0642 30.4926 32.8239 31.3284 27.6801C32.1643 22.472 33.9003 17.5211 36.5365 12.8274C39.237 8.06934 42.8055 3.79356 47.2421 0L53.704 3.9543C54.8613 4.66158 55.3757 5.56174 55.2471 6.6548C55.1185 7.74786 54.7327 8.64803 54.0898 9.35529C52.6109 11.1556 51.2607 13.4382 50.039 16.203C48.8174 18.9678 47.9815 22.0219 47.5314 25.3654C47.1456 28.7089 47.2742 32.2131 47.9172 35.878C48.5602 39.543 49.9426 43.1437 52.0644 46.68C53.0931 48.2875 53.3825 49.7342 52.9324 51.0201C52.5466 52.2418 51.6143 53.1098 50.1355 53.6242L37.5974 58.6394Z" fill="#79869A"/>
</svg>
