<svg width="976" height="121" viewBox="0 0 976 121" fill="none" xmlns="http://www.w3.org/2000/svg">
<path d="M3.20114 68V12.8H23.2309C35.3749 12.8 43.7337 19.0297 43.7337 29.6754V29.8331C43.7337 41.504 33.7977 47.4183 22.2057 47.4183H7.30171V68H3.20114ZM7.30171 43.6331H22.4423C32.6937 43.6331 39.6331 38.3497 39.6331 30.0697V29.912C39.6331 21.1588 32.7726 16.5851 22.9154 16.5851H7.30171V43.6331Z" fill="#181E52"/>
<path d="M69.2114 68.9463C58.6445 68.9463 49.4971 60.5874 49.4971 47.9703V47.8126C49.4971 36.2206 57.6982 26.8366 68.5805 26.8366C79.8571 26.8366 87.0331 35.984 87.0331 47.8914C87.0331 48.6011 87.0331 48.8377 86.9542 49.4686H53.5976C54.2285 59.4834 61.5622 65.3188 69.3691 65.3188C75.6776 65.3188 79.7782 62.5588 83.1691 59.0103L85.8502 61.376C81.7496 65.792 76.8605 68.9463 69.2114 68.9463ZM53.5976 45.9988H82.8536C82.2228 37.8766 77.6491 30.3851 68.4228 30.3851C60.4582 30.3851 54.2285 37.088 53.5976 45.9988Z" fill="#181E52"/>
<path d="M113.764 68.9463C101.857 68.9463 93.1827 59.3257 93.1827 48.0491V47.8914C93.1827 36.6148 101.936 26.8366 113.922 26.8366C125.83 26.8366 134.504 36.4571 134.504 47.7337V47.8914C134.504 59.168 125.751 68.9463 113.764 68.9463ZM113.922 65.3188C123.464 65.3188 130.324 57.512 130.324 48.0491V47.8914C130.324 38.1131 123.07 30.464 113.764 30.464C104.223 30.464 97.3621 38.2708 97.3621 47.7337V47.8914C97.3621 57.6697 104.617 65.3188 113.922 65.3188Z" fill="#181E52"/>
<path d="M144.018 80.6171V27.7828H147.882V36.7726C151.273 31.4891 156.477 26.8366 164.442 26.8366C174.141 26.8366 183.998 34.6434 183.998 47.7337V47.8914C183.998 60.9028 174.141 68.9463 164.442 68.9463C156.398 68.9463 151.273 64.3726 147.882 59.3257V80.6171H144.018ZM164.048 65.24C172.88 65.24 179.819 58.7737 179.819 48.0491V47.8914C179.819 37.3246 172.564 30.5428 164.048 30.5428C155.61 30.5428 147.645 37.5611 147.645 47.8126V47.9703C147.645 58.3006 155.61 65.24 164.048 65.24Z" fill="#181E52"/>
<path d="M194.262 68V10.4343H198.126V68H194.262Z" fill="#181E52"/>
<path d="M227.936 68.9463C217.369 68.9463 208.222 60.5874 208.222 47.9703V47.8126C208.222 36.2206 216.423 26.8366 227.305 26.8366C238.582 26.8366 245.758 35.984 245.758 47.8914C245.758 48.6011 245.758 48.8377 245.679 49.4686H212.322C212.953 59.4834 220.287 65.3188 228.094 65.3188C234.402 65.3188 238.503 62.5588 241.894 59.0103L244.575 61.376C240.474 65.792 235.585 68.9463 227.936 68.9463ZM212.322 45.9988H241.578C240.947 37.8766 236.374 30.3851 227.147 30.3851C219.183 30.3851 212.953 37.088 212.322 45.9988Z" fill="#181E52"/>
<path d="M289.901 68.3154L271.843 27.7828H276.338L291.557 63.6628L306.934 27.7828H311.271L293.213 68.3154H289.901Z" fill="#181E52"/>
<path d="M334.909 68.9463C323.002 68.9463 314.328 59.3257 314.328 48.0491V47.8914C314.328 36.6148 323.081 26.8366 335.067 26.8366C346.975 26.8366 355.649 36.4571 355.649 47.7337V47.8914C355.649 59.168 346.896 68.9463 334.909 68.9463ZM335.067 65.3188C344.609 65.3188 351.469 57.512 351.469 48.0491V47.8914C351.469 38.1131 344.215 30.464 334.909 30.464C325.368 30.464 318.507 38.2708 318.507 47.7337V47.8914C318.507 57.6697 325.762 65.3188 335.067 65.3188Z" fill="#181E52"/>
<path d="M380.461 68.9463C370.289 68.9463 364.374 62.0857 364.374 52.3863V27.7828H368.238V51.6766C368.238 59.9566 372.812 65.3977 381.013 65.3977C388.899 65.3977 394.971 59.4834 394.971 51.0457V27.7828H398.835V68H394.971V60.5086C392.211 65.24 387.795 68.9463 380.461 68.9463Z" fill="#181E52"/>
<path d="M424.17 68.7886C418.256 68.7886 412.026 66.4228 407.689 62.9531L409.976 59.8777C414.392 63.2686 419.281 65.1611 424.407 65.1611C429.848 65.1611 434.106 62.2434 434.106 57.512V57.3543C434.106 52.6228 429.059 50.9668 423.46 49.3108C416.836 47.4183 409.66 45.5257 409.66 38.2708V38.1131C409.66 31.6468 415.102 26.9943 422.908 26.9943C427.719 26.9943 433.16 28.6503 437.182 31.4103L435.131 34.6434C431.425 32.1988 427.088 30.6217 422.751 30.6217C417.152 30.6217 413.603 33.6183 413.603 37.64V37.7977C413.603 42.2926 419.044 43.8697 424.801 45.6046C431.267 47.4971 438.049 49.784 438.049 56.8811V57.0388C438.049 64.2148 431.977 68.7886 424.17 68.7886Z" fill="#181E52"/>
<path d="M487.009 68.9463C475.417 68.9463 466.507 59.3257 466.507 48.0491V47.8914C466.507 36.6148 475.417 26.8366 487.009 26.8366C494.58 26.8366 499.311 30.2274 503.096 34.2491L500.336 37.088C496.867 33.5394 492.924 30.464 486.931 30.464C477.783 30.464 470.686 38.0343 470.686 47.7337V47.8914C470.686 57.6697 478.099 65.3188 487.246 65.3188C492.924 65.3188 497.34 62.4011 500.731 58.616L503.412 60.9817C499.311 65.6343 494.343 68.9463 487.009 68.9463Z" fill="#181E52"/>
<path d="M528.618 68.9463C516.71 68.9463 508.036 59.3257 508.036 48.0491V47.8914C508.036 36.6148 516.789 26.8366 528.775 26.8366C540.683 26.8366 549.357 36.4571 549.357 47.7337V47.8914C549.357 59.168 540.604 68.9463 528.618 68.9463ZM528.775 65.3188C538.317 65.3188 545.178 57.512 545.178 48.0491V47.8914C545.178 38.1131 537.923 30.464 528.618 30.464C519.076 30.464 512.215 38.2708 512.215 47.7337V47.8914C512.215 57.6697 519.47 65.3188 528.775 65.3188Z" fill="#181E52"/>
<path d="M558.871 68V27.7828H562.735V35.2743C565.495 30.5428 569.911 26.8366 577.245 26.8366C587.417 26.8366 593.332 33.6971 593.332 43.3966V68H589.468V44.1063C589.468 35.8263 584.894 30.3851 576.693 30.3851C568.807 30.3851 562.735 36.2994 562.735 44.7371V68H558.871Z" fill="#181E52"/>
<path d="M604.867 68V27.7828H608.731V35.2743C611.491 30.5428 615.907 26.8366 623.241 26.8366C633.413 26.8366 639.328 33.6971 639.328 43.3966V68H635.464V44.1063C635.464 35.8263 630.89 30.3851 622.689 30.3851C614.803 30.3851 608.731 36.2994 608.731 44.7371V68H604.867Z" fill="#181E52"/>
<path d="M667.817 68.9463C657.25 68.9463 648.103 60.5874 648.103 47.9703V47.8126C648.103 36.2206 656.304 26.8366 667.186 26.8366C678.463 26.8366 685.639 35.984 685.639 47.8914C685.639 48.6011 685.639 48.8377 685.56 49.4686H652.203C652.834 59.4834 660.168 65.3188 667.975 65.3188C674.283 65.3188 678.384 62.5588 681.775 59.0103L684.456 61.376C680.355 65.792 675.466 68.9463 667.817 68.9463ZM652.203 45.9988H681.459C680.829 37.8766 676.255 30.3851 667.029 30.3851C659.064 30.3851 652.834 37.088 652.203 45.9988Z" fill="#181E52"/>
<path d="M712.291 68.9463C700.699 68.9463 691.789 59.3257 691.789 48.0491V47.8914C691.789 36.6148 700.699 26.8366 712.291 26.8366C719.862 26.8366 724.593 30.2274 728.378 34.2491L725.618 37.088C722.149 33.5394 718.206 30.464 712.213 30.464C703.065 30.464 695.968 38.0343 695.968 47.7337V47.8914C695.968 57.6697 703.381 65.3188 712.528 65.3188C718.206 65.3188 722.622 62.4011 726.013 58.616L728.694 60.9817C724.593 65.6343 719.625 68.9463 712.291 68.9463Z" fill="#181E52"/>
<path d="M750.639 68.7097C744.33 68.7097 739.362 65.3188 739.362 57.6697V31.3314H733.527V27.7828H739.362V14.9291H743.226V27.7828H757.342V31.3314H743.226V57.2754C743.226 63.032 746.538 65.0823 751.27 65.0823C753.241 65.0823 754.897 64.688 757.184 63.6628V67.2903C755.055 68.2366 753.162 68.7097 750.639 68.7097Z" fill="#181E52"/>
<path d="M782.24 68.9463C771.673 68.9463 762.526 60.5874 762.526 47.9703V47.8126C762.526 36.2206 770.727 26.8366 781.609 26.8366C792.886 26.8366 800.062 35.984 800.062 47.8914C800.062 48.6011 800.062 48.8377 799.983 49.4686H766.626C767.257 59.4834 774.591 65.3188 782.398 65.3188C788.706 65.3188 792.807 62.5588 796.198 59.0103L798.879 61.376C794.778 65.792 789.889 68.9463 782.24 68.9463ZM766.626 45.9988H795.882C795.252 37.8766 790.678 30.3851 781.452 30.3851C773.487 30.3851 767.257 37.088 766.626 45.9988Z" fill="#181E52"/>
<path d="M2.81711 113.786V93.8667H11.3823C13.8579 93.8667 15.7929 94.6066 17.045 95.8586C18.0409 96.8546 18.5816 98.192 18.5816 99.7855V99.8424C18.5816 103.143 16.3051 105.107 13.175 105.647L19.2929 113.786H16.5327L10.7562 106.046H5.06511V113.786H2.81711ZM5.06511 104.025H11.1831C14.1425 104.025 16.3051 102.489 16.3051 99.9278V99.8709C16.3051 97.3952 14.427 95.944 11.2115 95.944H5.06511V104.025Z" fill="#7C7F9C"/>
<path d="M27.1152 96.8546L29.79 92.7285L32.0664 93.7814L28.8225 96.8546H27.1152ZM28.3103 114.127C24.298 114.127 20.9687 111.026 20.9687 106.473V106.416C20.9687 102.176 23.9281 98.7611 28.0257 98.7611C32.3795 98.7611 34.8836 102.233 34.8836 106.53C34.8836 106.843 34.8836 106.985 34.8551 107.241H23.1883C23.5013 110.428 25.7493 112.221 28.3672 112.221C30.416 112.221 31.7819 111.395 33.0055 110.143L34.3714 111.367C32.8917 113.046 31.1274 114.127 28.3103 114.127ZM23.1883 105.619H32.664C32.4364 102.973 30.9282 100.611 27.9688 100.611C25.3794 100.611 23.5013 102.773 23.1883 105.619Z" fill="#7C7F9C"/>
<path d="M42.2478 114.099C39.516 114.099 36.7558 112.562 36.7558 109.517V109.46C36.7558 106.387 39.3169 104.708 43.0446 104.708C44.9511 104.708 46.2316 104.964 47.569 105.334V104.822C47.569 102.176 45.947 100.81 43.1868 100.81C41.451 100.81 40.0852 101.237 38.7193 101.891L38.0648 100.099C39.6868 99.3302 41.2518 98.8749 43.4145 98.8749C45.4917 98.8749 47.0853 99.4156 48.1666 100.497C49.1625 101.493 49.6747 102.944 49.6747 104.794V113.786H47.569V111.566C46.5446 112.904 44.8657 114.099 42.2478 114.099ZM42.6746 112.363C45.4064 112.363 47.5975 110.713 47.5975 108.379V106.956C46.4877 106.643 45.0934 106.33 43.2722 106.33C40.512 106.33 38.9754 107.525 38.9754 109.375V109.432C38.9754 111.282 40.7112 112.363 42.6746 112.363Z" fill="#7C7F9C"/>
<path d="M53.6899 113.786V93.0131H55.881V113.786H53.6899Z" fill="#7C7F9C"/>
<path d="M60.1691 95.8586V93.4399H62.6732V95.8586H60.1691ZM60.3114 113.786V99.0741H62.5025V113.786H60.3114Z" fill="#7C7F9C"/>
<path d="M71.5996 114.07C69.4654 114.07 67.189 113.245 65.5101 111.908L66.6199 110.343C68.2134 111.566 69.9776 112.221 71.7134 112.221C73.5061 112.221 74.7582 111.339 74.7582 109.887V109.83C74.7582 108.379 73.0224 107.782 71.0874 107.241C68.811 106.558 66.2215 105.818 66.2215 103.086V103.029C66.2215 100.497 68.3272 98.818 71.2297 98.818C73.0508 98.818 75.0143 99.4441 76.5224 100.44L75.5265 102.09C74.1606 101.208 72.624 100.668 71.1728 100.668C69.437 100.668 68.3272 101.578 68.3272 102.802V102.859C68.3272 104.253 70.1484 104.794 72.1118 105.391C74.3883 106.074 76.8355 106.956 76.8355 109.603V109.66C76.8355 112.448 74.5305 114.07 71.5996 114.07Z" fill="#7C7F9C"/>
<path d="M85.2881 96.8546L87.963 92.7285L90.2394 93.7814L86.9955 96.8546H85.2881ZM86.4833 114.127C82.471 114.127 79.1417 111.026 79.1417 106.473V106.416C79.1417 102.176 82.1011 98.7611 86.1987 98.7611C90.5524 98.7611 93.0565 102.233 93.0565 106.53C93.0565 106.843 93.0565 106.985 93.0281 107.241H81.3612C81.6743 110.428 83.9223 112.221 86.5402 112.221C88.589 112.221 89.9549 111.395 91.1785 110.143L92.5443 111.367C91.0646 113.046 89.3004 114.127 86.4833 114.127ZM81.3612 105.619H90.837C90.6093 102.973 89.1012 100.611 86.1418 100.611C83.5523 100.611 81.6743 102.773 81.3612 105.619Z" fill="#7C7F9C"/>
<path d="M103.716 118.339V99.0741H105.907V102.034C107.131 100.298 108.81 98.7611 111.541 98.7611C115.07 98.7611 118.57 101.55 118.57 106.387V106.444C118.57 111.225 115.098 114.099 111.541 114.099C108.81 114.099 107.045 112.647 105.907 110.969V118.339H103.716ZM111.143 112.135C113.989 112.135 116.322 110.03 116.322 106.473V106.416C116.322 102.916 113.96 100.725 111.143 100.725C108.411 100.725 105.822 103.058 105.822 106.387V106.444C105.822 109.859 108.411 112.135 111.143 112.135Z" fill="#7C7F9C"/>
<path d="M126.141 114.099C123.409 114.099 120.649 112.562 120.649 109.517V109.46C120.649 106.387 123.21 104.708 126.938 104.708C128.844 104.708 130.125 104.964 131.462 105.334V104.822C131.462 102.176 129.84 100.81 127.08 100.81C125.344 100.81 123.978 101.237 122.612 101.891L121.958 100.099C123.58 99.3302 125.145 98.8749 127.308 98.8749C129.385 98.8749 130.978 99.4156 132.06 100.497C133.056 101.493 133.568 102.944 133.568 104.794V113.786H131.462V111.566C130.438 112.904 128.759 114.099 126.141 114.099ZM126.568 112.363C129.3 112.363 131.491 110.713 131.491 108.379V106.956C130.381 106.643 128.986 106.33 127.165 106.33C124.405 106.33 122.869 107.525 122.869 109.375V109.432C122.869 111.282 124.604 112.363 126.568 112.363Z" fill="#7C7F9C"/>
<path d="M137.384 113.786V99.0741H139.575V102.916C140.656 100.468 142.79 98.7327 145.579 98.818V101.18H145.408C142.193 101.18 139.575 103.485 139.575 107.924V113.786H137.384Z" fill="#7C7F9C"/>
<path d="M156.11 113.786V93.8667H158.358V111.708H169.569V113.786H156.11Z" fill="#7C7F9C"/>
<path d="M176.775 114.099C174.044 114.099 171.283 112.562 171.283 109.517V109.46C171.283 106.387 173.844 104.708 177.572 104.708C179.479 104.708 180.759 104.964 182.097 105.334V104.822C182.097 102.176 180.475 100.81 177.714 100.81C175.979 100.81 174.613 101.237 173.247 101.891L172.592 100.099C174.214 99.3302 175.779 98.8749 177.942 98.8749C180.019 98.8749 181.613 99.4156 182.694 100.497C183.69 101.493 184.202 102.944 184.202 104.794V113.786H182.097V111.566C181.072 112.904 179.393 114.099 176.775 114.099ZM177.202 112.363C179.934 112.363 182.125 110.713 182.125 108.379V106.956C181.015 106.643 179.621 106.33 177.8 106.33C175.04 106.33 173.503 107.525 173.503 109.375V109.432C173.503 111.282 175.239 112.363 177.202 112.363Z" fill="#7C7F9C"/>
<path d="M205.171 114.127C199.423 114.127 195.184 109.603 195.184 103.883V103.826C195.184 98.192 199.423 93.5253 205.257 93.5253C208.871 93.5253 211.062 94.7773 213.025 96.6839L211.489 98.3343C209.781 96.7408 207.96 95.6025 205.228 95.6025C200.818 95.6025 197.517 99.188 197.517 103.769V103.826C197.517 108.436 200.818 112.05 205.228 112.05C207.96 112.05 209.753 110.997 211.659 109.176L213.139 110.627C211.09 112.733 208.757 114.127 205.171 114.127Z" fill="#7C7F9C"/>
<path d="M222.399 114.127C217.989 114.127 214.773 110.656 214.773 106.501V106.444C214.773 102.261 217.989 98.7611 222.456 98.7611C226.895 98.7611 230.111 102.233 230.111 106.387V106.444C230.111 110.627 226.838 114.127 222.399 114.127ZM222.456 112.164C225.643 112.164 227.863 109.574 227.863 106.501V106.444C227.863 103.286 225.501 100.696 222.399 100.696C219.212 100.696 217.021 103.286 217.021 106.387V106.444C217.021 109.603 219.354 112.164 222.456 112.164Z" fill="#7C7F9C"/>
<path d="M233.226 113.786V99.0741H235.417V102.916C236.499 100.468 238.633 98.7327 241.421 98.818V101.18H241.251C238.035 101.18 235.417 103.485 235.417 107.924V113.786H233.226Z" fill="#7C7F9C"/>
<path d="M243.905 118.339V99.0741H246.096V102.034C247.319 100.298 248.998 98.7611 251.73 98.7611C255.259 98.7611 258.759 101.55 258.759 106.387V106.444C258.759 111.225 255.287 114.099 251.73 114.099C248.998 114.099 247.234 112.647 246.096 110.969V118.339H243.905ZM251.332 112.135C254.177 112.135 256.511 110.03 256.511 106.473V106.416C256.511 102.916 254.149 100.725 251.332 100.725C248.6 100.725 246.011 103.058 246.011 106.387V106.444C246.011 109.859 248.6 112.135 251.332 112.135Z" fill="#7C7F9C"/>
<path d="M268.663 114.127C264.252 114.127 261.037 110.656 261.037 106.501V106.444C261.037 102.261 264.252 98.7611 268.72 98.7611C273.159 98.7611 276.375 102.233 276.375 106.387V106.444C276.375 110.627 273.102 114.127 268.663 114.127ZM268.72 112.164C271.907 112.164 274.126 109.574 274.126 106.501V106.444C274.126 103.286 271.765 100.696 268.663 100.696C265.476 100.696 263.285 103.286 263.285 106.387V106.444C263.285 109.603 265.618 112.164 268.72 112.164Z" fill="#7C7F9C"/>
<path d="M279.49 113.786V99.0741H281.681V102.916C282.762 100.468 284.897 98.7327 287.685 98.818V101.18H287.514C284.299 101.18 281.681 103.485 281.681 107.924V113.786H279.49Z" fill="#7C7F9C"/>
<path d="M293.828 114.099C291.097 114.099 288.336 112.562 288.336 109.517V109.46C288.336 106.387 290.897 104.708 294.625 104.708C296.532 104.708 297.812 104.964 299.15 105.334V104.822C299.15 102.176 297.528 100.81 294.767 100.81C293.032 100.81 291.666 101.237 290.3 101.891L289.645 100.099C291.267 99.3302 292.832 98.8749 294.995 98.8749C297.072 98.8749 298.666 99.4156 299.747 100.497C300.743 101.493 301.255 102.944 301.255 104.794V113.786H299.15V111.566C298.125 112.904 296.446 114.099 293.828 114.099ZM294.255 112.363C296.987 112.363 299.178 110.713 299.178 108.379V106.956C298.068 106.643 296.674 106.33 294.853 106.33C292.092 106.33 290.556 107.525 290.556 109.375V109.432C290.556 111.282 292.292 112.363 294.255 112.363Z" fill="#7C7F9C"/>
<path d="M309.855 114.042C307.465 114.042 305.701 112.875 305.701 109.887V101.009H303.652V99.0741H305.701V94.635H307.892V99.0741H312.558V101.009H307.892V109.603C307.892 111.424 308.888 112.05 310.367 112.05C311.136 112.05 311.733 111.908 312.501 111.538V113.416C311.733 113.843 310.908 114.042 309.855 114.042Z" fill="#7C7F9C"/>
<path d="M315.64 95.8586V93.4399H318.144V95.8586H315.64ZM315.782 113.786V99.0741H317.973V113.786H315.782Z" fill="#7C7F9C"/>
<path d="M328.92 114.127C324.51 114.127 321.294 110.656 321.294 106.501V106.444C321.294 102.261 324.51 98.7611 328.977 98.7611C333.416 98.7611 336.632 102.233 336.632 106.387V106.444C336.632 110.627 333.359 114.127 328.92 114.127ZM328.977 112.164C332.164 112.164 334.384 109.574 334.384 106.501V106.444C334.384 103.286 332.022 100.696 328.92 100.696C325.733 100.696 323.542 103.286 323.542 106.387V106.444C323.542 109.603 325.875 112.164 328.977 112.164Z" fill="#7C7F9C"/>
<path d="M339.747 113.786V99.0741H341.938V101.635C342.934 100.042 344.442 98.7611 346.975 98.7611C350.503 98.7611 352.609 101.151 352.609 104.651V113.786H350.418V105.192C350.418 102.46 348.967 100.753 346.349 100.753C343.816 100.753 341.938 102.603 341.938 105.363V113.786H339.747Z" fill="#7C7F9C"/>
<path d="M364.476 113.786V93.8667H371.931C376.427 93.8667 379.386 96.257 379.386 100.184V100.241C379.386 104.538 375.801 106.757 371.561 106.757H366.724V113.786H364.476ZM366.724 104.708H371.646C374.947 104.708 377.11 102.944 377.11 100.326V100.269C377.11 97.4237 374.976 95.944 371.76 95.944H366.724V104.708Z" fill="#7C7F9C"/>
<path d="M388.551 114.127C384.539 114.127 381.21 111.026 381.21 106.473V106.416C381.21 102.176 384.169 98.7611 388.267 98.7611C392.621 98.7611 395.125 102.233 395.125 106.53C395.125 106.843 395.125 106.985 395.096 107.241H383.429C383.742 110.428 385.99 112.221 388.608 112.221C390.657 112.221 392.023 111.395 393.247 110.143L394.613 111.367C393.133 113.046 391.369 114.127 388.551 114.127ZM383.429 105.619H392.905C392.678 102.973 391.169 100.611 388.21 100.611C385.621 100.611 383.742 102.773 383.429 105.619Z" fill="#7C7F9C"/>
<path d="M404.822 114.127C400.412 114.127 397.196 110.656 397.196 106.501V106.444C397.196 102.261 400.412 98.7611 404.879 98.7611C409.318 98.7611 412.534 102.233 412.534 106.387V106.444C412.534 110.627 409.261 114.127 404.822 114.127ZM404.879 112.164C408.066 112.164 410.286 109.574 410.286 106.501V106.444C410.286 103.286 407.924 100.696 404.822 100.696C401.635 100.696 399.444 103.286 399.444 106.387V106.444C399.444 109.603 401.778 112.164 404.879 112.164Z" fill="#7C7F9C"/>
<path d="M415.649 118.339V99.0741H417.84V102.034C419.064 100.298 420.743 98.7611 423.475 98.7611C427.003 98.7611 430.503 101.55 430.503 106.387V106.444C430.503 111.225 427.032 114.099 423.475 114.099C420.743 114.099 418.979 112.647 417.84 110.969V118.339H415.649ZM423.076 112.135C425.922 112.135 428.255 110.03 428.255 106.473V106.416C428.255 102.916 425.893 100.725 423.076 100.725C420.344 100.725 417.755 103.058 417.755 106.387V106.444C417.755 109.859 420.344 112.135 423.076 112.135Z" fill="#7C7F9C"/>
<path d="M433.891 113.786V93.0131H436.082V113.786H433.891Z" fill="#7C7F9C"/>
<path d="M446.744 114.127C442.732 114.127 439.403 111.026 439.403 106.473V106.416C439.403 102.176 442.362 98.7611 446.46 98.7611C450.814 98.7611 453.318 102.233 453.318 106.53C453.318 106.843 453.318 106.985 453.289 107.241H441.622C441.935 110.428 444.183 112.221 446.801 112.221C448.85 112.221 450.216 111.395 451.44 110.143L452.806 111.367C451.326 113.046 449.562 114.127 446.744 114.127ZM441.622 105.619H451.098C450.871 102.973 449.362 100.611 446.403 100.611C443.814 100.611 441.935 102.773 441.622 105.619Z" fill="#7C7F9C"/>
<path d="M827 10.0784C827 4.86 831.23 0.629639 836.449 0.629639H966.551C971.77 0.629639 976 4.86 976 10.0784V75.4931C976 80.7115 971.77 84.9418 966.551 84.9418H836.449C831.23 84.9418 827 80.7115 827 75.4931V10.0784Z" fill="#73C1C7"/>
<path d="M847.968 62.1712V22.0502H863.787C873.187 22.0502 879.033 27.3805 879.033 35.4621V35.5767C879.033 44.5179 871.869 49.2751 862.985 49.2751H855.018V62.1712H847.968ZM855.018 42.9131H863.214C868.544 42.9131 871.869 39.9327 871.869 35.7486V35.634C871.869 30.8768 868.487 28.4695 863.214 28.4695H855.018V42.9131Z" fill="white"/>
<path d="M877.065 62.1712L894.718 21.7636H901.252L918.905 62.1712H911.454L907.385 52.4848H888.413L884.287 62.1712H877.065ZM890.993 46.2374H904.806L897.87 30.189L890.993 46.2374Z" fill="white"/>
<path d="M924.066 62.1712V22.0502H953.813V28.3549H931.116V38.7864H951.234V45.1484H931.116V55.8664H954.099V62.1712H924.066Z" fill="white"/>
</svg>
