<svg width="56" height="59" viewBox="0 0 56 59" fill="none" xmlns="http://www.w3.org/2000/svg">
<path d="M48.4353 58.6394C51.3287 53.7528 53.3219 48.6732 54.415 43.4008C55.4437 38.0642 55.5402 32.8239 54.7043 27.6801C53.8684 22.472 52.1324 17.5211 49.4962 12.8274C46.7957 8.06934 43.2272 3.79356 38.7907 0L32.3288 3.9543C31.1714 4.66158 30.657 5.56174 30.7856 6.6548C30.9142 7.74786 31.3 8.64803 31.943 9.35529C33.4218 11.1556 34.7721 13.4382 35.9937 16.203C37.2154 18.9678 38.0512 22.0219 38.5013 25.3654C38.8871 28.7089 38.7585 32.2131 38.1155 35.878C37.4726 39.543 36.0902 43.1437 33.9683 46.68C32.9396 48.2875 32.6502 49.7342 33.1003 51.0201C33.4861 52.2418 34.4184 53.1098 35.8973 53.6242L48.4353 58.6394ZM17.6689 58.6394C20.5623 53.7528 22.5555 48.6732 23.6486 43.4008C24.6774 38.0642 24.7738 32.8239 23.9379 27.6801C23.1021 22.472 21.366 17.5211 18.7298 12.8274C16.0293 8.06934 12.4608 3.79356 8.02429 0L1.56238 3.9543C0.405025 4.66158 -0.109356 5.56174 0.0192413 6.6548C0.147835 7.74786 0.533623 8.64803 1.1766 9.35529C2.65544 11.1556 4.00569 13.4382 5.22734 16.203C6.44899 18.9678 7.28486 22.0219 7.73495 25.3654C8.12073 28.7089 7.99214 32.2131 7.34916 35.878C6.70619 39.543 5.32379 43.1437 3.20197 46.68C2.17321 48.2875 1.88387 49.7342 2.33395 51.0201C2.71974 52.2418 3.65205 53.1098 5.1309 53.6242L17.6689 58.6394Z" fill="#79869A"/>
</svg>
