<svg width="65" height="62" viewBox="0 0 65 62" fill="none" xmlns="http://www.w3.org/2000/svg">
<path d="M60.2685 18.3374C57.9188 18.3374 56.2164 20.0312 56.2164 22.3751V31.4855C55.6689 31.2232 55.0415 31.0778 54.3543 31.0778H54.1148C53.342 31.0778 52.6177 31.3772 52.0702 31.9161L42.7342 41.1864C40.4644 43.4419 40.4416 46.7184 40.4416 46.8581V53.6021H40.2733C39.1783 53.6021 38.186 54.5887 38.186 55.6666V61.478H40.376V55.792H53.0999V61.478H55.2899V55.6666C55.2899 54.6799 54.4572 53.7846 53.4791 53.6363V52.7523C53.4791 52.6868 53.5361 51.1754 55.1302 49.5985L62.0366 42.7377C64.3065 40.4821 64.3292 38.1381 64.3292 38.044V22.3716C64.3292 20.0362 62.6297 18.3339 60.2772 18.3339L60.2685 18.3374ZM62.1306 38.0328C62.1306 38.0983 62.0735 39.6097 60.4795 41.1866L53.5731 48.0474C51.3032 50.303 51.2804 52.647 51.2804 52.7411V53.6023H42.6233V46.864C42.6233 46.864 42.6604 44.3375 44.2744 42.7407L53.6104 33.4704C53.7415 33.3392 53.924 33.2651 54.1065 33.2651H54.3461C55.4638 33.2651 56.2081 34.0093 56.2081 35.1129V35.4123C56.2081 35.5577 56.1511 35.6974 56.0485 35.8001L49.6324 42.1791L51.1723 43.7332L57.5883 37.3542C58.0987 36.8438 58.3982 36.1337 58.3982 35.4122V22.3803C58.3982 21.2767 59.151 20.5325 60.2603 20.5325C61.3695 20.5325 62.1223 21.2767 62.1223 22.3803V38.0381L62.1306 38.0328ZM24.7326 53.611H24.5644V46.867C24.5644 46.7273 24.5359 43.4423 22.2718 41.1953L12.9358 31.925C12.3883 31.386 11.6668 31.0867 10.8912 31.0867H10.6517C9.96445 31.0867 9.33709 31.2321 8.78959 31.4944V22.384C8.78959 20.0486 7.09008 18.3463 4.73751 18.3463C2.38779 18.3463 0.685425 20.0401 0.685425 22.384V38.0564C0.685425 38.1591 0.71394 40.4945 2.97806 42.7501L9.88452 49.6109C11.4757 51.1879 11.5356 52.7049 11.5356 52.7505V53.6488C10.5575 53.8028 9.7248 54.6924 9.7248 55.679V61.4905H11.9148V55.8045H24.6387V61.4905H26.8287V55.679C26.8287 54.5983 25.8363 53.6145 24.7413 53.6145L24.7326 53.611ZM13.7169 53.611V52.7498C13.7169 52.6471 13.6884 50.3117 11.4243 48.0561L4.51785 41.1953C2.92667 39.6183 2.86681 38.1013 2.86681 38.0557V22.3833C2.86681 21.2798 3.61959 20.5355 4.7289 20.5355C5.8382 20.5355 6.59098 21.2798 6.59098 22.3833V35.4153C6.59098 36.1367 6.88184 36.8467 7.40084 37.3572L13.8169 43.7362L15.3567 42.1821L8.9407 35.8031C8.83805 35.7005 8.78102 35.5636 8.78102 35.4153V35.1159C8.78102 34.0123 9.53379 33.2681 10.6431 33.2681H10.8826C11.0737 33.2681 11.2476 33.3423 11.3788 33.4734L20.7148 42.7437C22.3287 44.3434 22.3658 46.8471 22.3658 46.867V53.611H13.7087L13.7169 53.611ZM45.1296 31.9964H19.8701C18.0822 31.9964 16.4825 31.0697 15.5842 29.5212C14.686 27.9728 14.6945 26.1279 15.5842 24.5795L28.2139 2.68827C29.1037 1.13987 30.7119 0.213135 32.4999 0.213135C34.2878 0.213135 35.8875 1.13987 36.7858 2.68827L49.4155 24.5656C50.3052 26.114 50.3137 27.959 49.4155 29.5074C48.5172 31.0558 46.9175 31.9825 45.1296 31.9825V31.9964ZM32.4999 2.40876C31.5075 2.40876 30.6093 2.92774 30.1131 3.78889L17.4834 25.6663C16.9872 26.5274 16.9872 27.5568 17.4834 28.418C17.9796 29.2792 18.8692 29.7981 19.8701 29.7981H45.1347C46.1271 29.7981 47.0252 29.2792 47.5214 28.418C48.0176 27.5568 48.0176 26.5274 47.5214 25.6663L34.8859 3.78305C34.3897 2.92187 33.5 2.40292 32.4991 2.40292L32.4999 2.40876ZM32.4999 27.2572H32.4913C30.8488 27.2487 29.52 25.9142 29.5285 24.2802C29.5285 23.4847 29.8422 22.7404 30.4125 22.1786C30.9742 21.6226 31.7185 21.3174 32.5084 21.3174H32.5226C34.1566 21.3174 35.494 22.6519 35.494 24.2888C35.494 25.0929 35.1803 25.8372 34.61 26.3989C34.0482 26.9549 33.2954 27.2601 32.5084 27.2601L32.4999 27.2572ZM32.4999 23.5046C32.2888 23.5046 32.0921 23.5844 31.9381 23.7299C31.7927 23.8753 31.7043 24.072 31.7043 24.2774C31.7043 24.7079 32.055 25.0587 32.4913 25.0587C32.7023 25.0587 32.8991 24.9788 33.053 24.8249C33.207 24.6794 33.2869 24.4827 33.2869 24.2688C33.2869 23.8468 32.9304 23.496 32.4999 23.496V23.5046ZM32.4999 20.3137C30.8574 20.3137 29.5143 19.0647 29.5143 17.5249V10.2762C29.5143 8.73632 30.8488 7.48737 32.4999 7.48737C34.1509 7.48737 35.4854 8.73632 35.4854 10.2762V17.5249C35.4854 19.0647 34.1509 20.3137 32.4999 20.3137ZM32.4999 9.67175C32.0693 9.67175 31.7043 9.94835 31.7043 10.2706V17.5193C31.7043 17.8415 32.0693 18.1181 32.4999 18.1181C32.9304 18.1181 33.2954 17.8415 33.2954 17.5193V10.2706C33.2954 9.94834 32.9304 9.67175 32.4999 9.67175Z" fill="#FFCB05"/>
</svg>
